<svg xmlns="http://www.w3.org/2000/svg" xmlns:xlink="http://www.w3.org/1999/xlink" viewBox="0 0 113.24 241.36"><defs><style>.cls-1{fill:url(#Degradado_sin_nombre_8);}.cls-2{fill:url(#Degradado_sin_nombre_8-2);}.cls-3{fill:url(#Degradado_sin_nombre_8-3);}.cls-4{fill:url(#Degradado_sin_nombre_8-4);}.cls-5{fill:url(#Degradado_sin_nombre_8-5);}.cls-6{fill:url(#Degradado_sin_nombre_8-6);}</style><linearGradient id="Degradado_sin_nombre_8" y1="230.38" x2="113.24" y2="230.38" gradientUnits="userSpaceOnUse"><stop offset="0" stop-color="#f9b806"/><stop offset="1" stop-color="#ff9f00"/></linearGradient><linearGradient id="Degradado_sin_nombre_8-2" x1="1.34" y1="214.55" x2="111.91" y2="214.55" xlink:href="#Degradado_sin_nombre_8"/><linearGradient id="Degradado_sin_nombre_8-3" x1="3.29" y1="193.18" x2="109.95" y2="193.18" xlink:href="#Degradado_sin_nombre_8"/><linearGradient id="Degradado_sin_nombre_8-4" x1="11.63" y1="149.87" x2="101.61" y2="149.87" xlink:href="#Degradado_sin_nombre_8"/><linearGradient id="Degradado_sin_nombre_8-5" x1="20.68" y1="116.55" x2="92.56" y2="116.55" xlink:href="#Degradado_sin_nombre_8"/><linearGradient id="Degradado_sin_nombre_8-6" x1="23.55" y1="53.82" x2="90.06" y2="53.82" xlink:href="#Degradado_sin_nombre_8"/></defs><g id="Capa_2" data-name="Capa 2"><g id="Capa_1-2" data-name="Capa 1"><path id="path3944" class="cls-1" d="M5.46,219.4a4.2,4.2,0,0,0-3.69,1.51C-.15,222.74,0,229.83,0,229.83c0,5.71.08,8.81.45,10.21.27,1,.77,1.32,3.6,1.32H109.19c2.83,0,3.33-.31,3.6-1.32.37-1.4.45-4.5.45-10.21,0,0,.15-7.09-1.77-8.92s-2.45-1.48-5.66-1.48H7.43C6.63,219.43,6,219.41,5.46,219.4Z"/><path id="path3942" class="cls-2" d="M4.49,211.76c-4.2,0-4.2,5.59-.06,5.59,7.44,0,34.94-.07,52.19,0s44.75,0,52.19,0c4.14,0,4.14-5.59-.06-5.59H4.49Z"/><path id="path3940" class="cls-3" d="M19.87,176.75c-1,0-3.05.15-4,1.21-1.26,1.41-1.11,6.07-1.11,6.07-1.59,13.44-9.52,14.26-11.48,23.15,0,1.8,1.32,2.43,4.32,2.43,3.33,0,18.76,0,49,0s45.68,0,49,0c3,0,4.32-.63,4.32-2.43-2-8.89-9.89-9.71-11.49-23.15,0,0,.16-4.66-1.1-6.07s-4.52-1.2-4.52-1.2H20.4A4.52,4.52,0,0,0,19.87,176.75Z"/><path id="path3938" class="cls-4" d="M28,125.25c-9.76,0-11,.39-12.95,2-8.11,7.07-.11,16.08,8.36,16.08,12.3,1.21,7.49,12.69-.21,20.16-8.12,7.87-8.37,9.6-7.52,10.45s6.08.52,8.8.52l32.18.06,32.18-.06c2.72,0,8,.31,8.8-.52s.6-2.58-7.52-10.45c-7.7-7.47-12.51-18.95-.21-20.16,8.47,0,16.47-9,8.36-16.08-3-2.54-4.51-1.91-41.61-1.91C42.71,125.32,33.81,125.23,28,125.25Z"/><path id="path3936" class="cls-5" d="M26.75,110.26c-8,0-8.07,12.56-.18,12.56h60.1c7.89,0,7.87-12.56-.18-12.56-7.52,0-17.59.11-29.87,0C44.34,110.37,34.27,110.26,26.75,110.26Z"/><path id="path3930" class="cls-6" d="M56.62,0C46.32,0,43.56,6.58,43.56,11.75s4.29,6.76,1.76,8C22.65,33.31,20.18,65.24,26.68,85.84c3.75,9.28,4,10.16,1,12.86-4.87,4.87-4,8.93,0,8.93H85.5c4,0,4.92-4.06,0-8.93-3-2.7-2.74-3.58,1-12.86,2.71-11.79,6.78-30.36-1-45.46-7,7-15.29,15.62-15.29,15.62l-4.9-7.31s6.33-6.46,16.24-16.37c-2.68-5.77-7.78-9.38-13.66-12.54-2.52-1.27,1.77-2.87,1.77-8S66.92,0,56.62,0Z"/></g></g></svg>