<svg xmlns="http://www.w3.org/2000/svg" xmlns:xlink="http://www.w3.org/1999/xlink" viewBox="0 0 140.11 224.39"><defs><style>.cls-1{fill:url(#Nueva_muestra_de_degradado_1);}.cls-2{fill:url(#Nueva_muestra_de_degradado_1-2);}.cls-3{fill:url(#Nueva_muestra_de_degradado_1-3);}</style><linearGradient id="Nueva_muestra_de_degradado_1" x1="27.77" y1="197.82" x2="128.68" y2="197.82" gradientUnits="userSpaceOnUse"><stop offset="0" stop-color="#bcbcbc"/><stop offset="1" stop-color="#3f3f3f"/></linearGradient><linearGradient id="Nueva_muestra_de_degradado_1-2" x1="0" y1="95.21" x2="140.11" y2="95.21" xlink:href="#Nueva_muestra_de_degradado_1"/><linearGradient id="Nueva_muestra_de_degradado_1-3" x1="17.94" y1="214.13" x2="136.42" y2="214.13" xlink:href="#Nueva_muestra_de_degradado_1"/></defs><g id="Capa_2" data-name="Capa 2"><g id="Capa_1-2" data-name="Capa 1"><path id="path2184" class="cls-1" d="M27.77,198.17c0-3.47-.3-3.61,10-3.61,7.43,0,20.57.06,39.39.06,20.95,0,34.38,0,41.8,0,8.64,0,9.63-.23,9.73,3s-.9,3.16-9.84,3.16c-9.37,0-24.52.14-41.76.14-21.36,0-32.2.08-39.48.08-10.12,0-9.83-.13-9.83-2.9Z"/><path class="cls-2" d="M92.91,21.61c-5.14-1.7-8.34-4-10.49-7.44C79.09,8.89,74.31,4.36,69.73,0V20.62L63.92,22c-5,1.18-5.82,2-5.87,5.79,0,3.94-1.11,4.84-9.78,8.32-5.34,2.14-10.09,5.08-10.55,6.53C36.72,45.77,20.66,61.76,9,71.27.88,77.82.57,78.36.11,86.66c-.39,7.07.18,9.48,3.19,13.49,6.85,9.1,25.16,10.34,30.93,2.1A21.17,21.17,0,0,1,40.67,97c3.83-2,5.36-2,12.41.13a65.92,65.92,0,0,0,15.49,2.39H76L66.4,109.82C45.39,130.62,27.23,157.75,33,188h0c.74,2.2,2.45,2.34,8.9,2.34s18.3.17,35.34,0c0,0,26.52-.09,31.44-.09,2.79,0,11.51.22,12.2-.43,1.13-1.07.36-4.91.85-12s3-18.7,7.21-31.7c8.64-26.56,11.13-37.94,11.13-50.86C140.11,60.72,121,31,92.91,21.61ZM49.27,57.77c-5.29,2.74-7.17,2.86-8.59.57-1.19-1.93,3.48-8.88,7.7-11.46,2.16-1.33,3.22-1.06,4.9,1.2C56.07,51.82,54.79,54.92,49.27,57.77Z"/><path class="cls-3" d="M77.18,204v0C14.37,204,18,202.1,18,214.45c0,8.38-.4,9.67,6.53,9.67,7.34,0,21.78.27,52.68.27v0c30.9,0,45.34-.27,52.68-.27,6.93,0,6.52-1.29,6.52-9.67C136.38,202.1,140,204,77.18,204Z"/></g></g></svg>