<svg xmlns="http://www.w3.org/2000/svg" xmlns:xlink="http://www.w3.org/1999/xlink" viewBox="0 0 115.18 175.11"><defs><style>.cls-1{fill:url(#Degradado_sin_nombre_8);}.cls-2{fill:url(#Degradado_sin_nombre_8-2);}.cls-3{fill:url(#Degradado_sin_nombre_8-3);}.cls-4{fill:url(#Degradado_sin_nombre_8-4);}</style><linearGradient id="Degradado_sin_nombre_8" y1="169.03" x2="115.18" y2="169.03" gradientUnits="userSpaceOnUse"><stop offset="0" stop-color="#f9b806"/><stop offset="1" stop-color="#ff9f00"/></linearGradient><linearGradient id="Degradado_sin_nombre_8-2" x1="5.35" y1="150.25" x2="109.83" y2="150.25" xlink:href="#Degradado_sin_nombre_8"/><linearGradient id="Degradado_sin_nombre_8-3" x1="21.73" y1="109.63" x2="93.46" y2="109.63" xlink:href="#Degradado_sin_nombre_8"/><linearGradient id="Degradado_sin_nombre_8-4" x1="22.51" y1="39.46" x2="92.67" y2="39.46" xlink:href="#Degradado_sin_nombre_8"/></defs><g id="Capa_2" data-name="Capa 2"><g id="Capa_1-2" data-name="Capa 1"><path id="path835" class="cls-1" d="M11.12,163a45.4,45.4,0,0,0-6.11.31c-4.8.83-5,6-5,9.62,0,2.08,1.67,2.22,10,2.22S40.62,175,57.59,175s39.35.09,47.63.09,10-.14,10-2.22c0-3.65-.2-8.79-5-9.62s-23.19.19-52.58.19C35.55,163.46,19.69,162.89,11.12,163Z"/><path id="path833" class="cls-2" d="M37.07,140.29c-7.11,0-16.86-.13-18.94.48-6,2.84-12.78,12.6-12.78,16.15,0,3.21.07,3.31,9.23,3.31s31.88-.07,43-.07,33.85.07,43,.07,9.23-.1,9.23-3.31c0-3.55-6.82-13.31-12.78-16.15-2.07-.61-11.83-.48-18.94-.48s-20.52.05-20.52.05S44.19,140.29,37.07,140.29Z"/><path id="path831" class="cls-3" d="M57.59,82.54c-9,0-18.42.09-19.59.31s-1.28,3.75-1.28,4.41,0,7.25,0,7.25c0,13-3.27,22.45-10.69,31.26a18.37,18.37,0,0,0-4.13,8.09c-.79,3,1.75,2.86,8.14,2.86s22.47-.14,27.58-.14c4.56,0,21.2.14,27.59.14s8.93.13,8.14-2.86a18.54,18.54,0,0,0-4.14-8.09C81.76,117,78.53,107.49,78.49,94.51c0,0,0-6.59,0-7.25s-.06-4.16-1.28-4.41S57.59,82.54,57.59,82.54Z"/><path id="path825" class="cls-4" d="M57.59,0C32.89.05,13.64,24.62,31,49.32l4.13,4.91-5.68,4.33c-3.12,2.38-6.12,5.46-6.65,6.84-1.46,3.81,2,8.88,7.83,11.51,3.92,1.76,9.2,2.25,26.92,1.93,17.72.32,23-.17,26.92-1.93,5.85-2.63,9.29-7.7,7.83-11.51-.53-1.38-3.52-4.46-6.65-6.84L80,54.23l4.13-4.91C101.54,24.62,82.29.05,57.59,0Z"/></g></g></svg>