<svg xmlns="http://www.w3.org/2000/svg" xmlns:xlink="http://www.w3.org/1999/xlink" viewBox="0 0 140.63 283.19"><defs><style>.cls-1{fill:url(#Degradado_sin_nombre_26);}.cls-2{fill:url(#Degradado_sin_nombre_26-2);}.cls-3{fill:url(#Degradado_sin_nombre_26-3);}.cls-4{fill:url(#Degradado_sin_nombre_26-4);}.cls-5{fill:url(#Degradado_sin_nombre_26-5);}.cls-6{fill:url(#Degradado_sin_nombre_26-6);}.cls-7{fill:url(#Degradado_sin_nombre_26-7);}</style><linearGradient id="Degradado_sin_nombre_26" y1="256.08" x2="140.63" y2="256.08" gradientUnits="userSpaceOnUse"><stop offset="0" stop-color="#f9b806"/><stop offset="1" stop-color="#ff9f00"/></linearGradient><linearGradient id="Degradado_sin_nombre_26-2" x1="21.49" y1="174.47" x2="119.14" y2="174.47" xlink:href="#Degradado_sin_nombre_26"/><linearGradient id="Degradado_sin_nombre_26-3" x1="18.64" y1="45.24" x2="121.99" y2="45.24" xlink:href="#Degradado_sin_nombre_26"/><linearGradient id="Degradado_sin_nombre_26-4" x1="33" y1="125.91" x2="107.63" y2="125.91" xlink:href="#Degradado_sin_nombre_26"/><linearGradient id="Degradado_sin_nombre_26-5" x1="12.04" y1="220.11" x2="128.58" y2="220.11" xlink:href="#Degradado_sin_nombre_26"/><linearGradient id="Degradado_sin_nombre_26-6" x1="40.6" y1="98.64" x2="100.02" y2="98.64" xlink:href="#Degradado_sin_nombre_26"/><linearGradient id="Degradado_sin_nombre_26-7" x1="38.72" y1="110.12" x2="101.9" y2="110.12" xlink:href="#Degradado_sin_nombre_26"/></defs><g id="Capa_2" data-name="Capa 2"><g id="Capa_1-2" data-name="Capa 1"><g id="g868"><g id="g4790"><g id="g4799"><path id="path848" class="cls-1" d="M24.75,229c-1.9,0-4.4.41-4.4,2.57,0,9.38-13.59,17-19.11,24.63-1.2,1.35-2.7,23.76,1.8,26.9,5.83,0,58.07.12,67.27.12s61.44-.12,67.28-.12c4.49-3.14,3-25.55,1.8-26.9-5.52-7.59-19.11-15.25-19.11-24.63,0-2.16-2.5-2.57-4.4-2.57-16.06,0-16.08,0-45.57,0S40.81,229,24.75,229Z"/><path id="path852" class="cls-2" d="M70.31,137.59H47.11c-2.34-.06-2.58,1.54-2.91,2.7-5.52,19.79-24.57,66.29-22.56,69.77a3.22,3.22,0,0,0,3.07,1.28c12.1,0,32,0,45.6,0s33.51,0,45.61,0a3.22,3.22,0,0,0,3.07-1.28c2-3.48-17-50-22.57-69.77-.32-1.16-.56-2.76-2.91-2.7Z"/><path id="path854" class="cls-3" d="M70.31,0,68.14,7.07c-1.85,5.87-3.7,12.76-5.9,20.7-2.9,10.4-2.46,10.12-7.16,10.12-2.61,0-1.57,0-7.64,0a4.21,4.21,0,0,1-3-1c-9.26-6-9.23-5.86-25.8-16.6L43.31,90.48h54L122,20.27C105.42,31,105.45,30.91,96.19,36.87a4.21,4.21,0,0,1-3,1c-6.07,0-5,0-7.64,0-4.7,0-4.26.28-7.16-10.12-2.2-7.94-4-14.83-5.9-20.7Z"/><path id="path856" class="cls-4" d="M70.31,116.66c-10.57,0-21.91.11-31.67.21-7.4,0-7.68,18.3.1,18.3,9.3,0,21.81,0,31.57-.06s22.28.06,31.58.06c7.77,0,7.5-18.3.1-18.3-9.76-.1-21.1-.17-31.68-.21Z"/><path id="path858" class="cls-5" d="M15.74,214c-4.74,0-5,12.29-.39,12.29l55-.13,55,.13c4.6,0,4.35-12.29-.38-12.29-16.79.07-37,.09-54.58.08S32.53,214,15.74,214Z"/><path id="path860" class="cls-6" d="M44.14,93.7c-4.64,0-4.79,9.88,0,9.88H96.49c4.78,0,4.64-9.88,0-9.88-9.91,0-24.25,0-26.18,0S54.05,93.67,44.14,93.7Z"/><path id="path862" class="cls-7" d="M70.31,106l-27.76,0c-4.86,0-5.18,8.21-.44,8.21l28.2,0,28.21,0c4.74,0,4.41-8.16-.45-8.21Z"/></g></g></g></g></g></svg>