<svg xmlns="http://www.w3.org/2000/svg" xmlns:xlink="http://www.w3.org/1999/xlink" viewBox="0 0 147.34 283.19"><defs><style>.cls-1{fill:url(#Degradado_sin_nombre_26);}.cls-2{fill:url(#Degradado_sin_nombre_26-2);}.cls-3{fill:url(#Degradado_sin_nombre_26-3);}.cls-4{fill:url(#Degradado_sin_nombre_26-4);}.cls-5{fill:url(#Degradado_sin_nombre_26-5);}.cls-6{fill:url(#Degradado_sin_nombre_26-6);}.cls-7{fill:url(#Degradado_sin_nombre_26-7);}.cls-8{fill:url(#Degradado_sin_nombre_26-9);}.cls-9{fill:url(#Degradado_sin_nombre_26-10);}.cls-10{fill:url(#Degradado_sin_nombre_26-11);}.cls-11{fill:url(#Degradado_sin_nombre_26-12);}</style><linearGradient id="Degradado_sin_nombre_26" x1="17.9" y1="218.83" x2="73.67" y2="218.83" gradientUnits="userSpaceOnUse"><stop offset="0" stop-color="#f9b806"/><stop offset="1" stop-color="#ff9f00"/></linearGradient><linearGradient id="Degradado_sin_nombre_26-2" x1="35.82" y1="130.39" x2="73.67" y2="130.39" xlink:href="#Degradado_sin_nombre_26"/><linearGradient id="Degradado_sin_nombre_26-3" x1="44" y1="104.52" x2="103.33" y2="104.52" xlink:href="#Degradado_sin_nombre_26"/><linearGradient id="Degradado_sin_nombre_26-4" x1="35.72" y1="72.85" x2="73.67" y2="72.85" xlink:href="#Degradado_sin_nombre_26"/><linearGradient id="Degradado_sin_nombre_26-5" x1="56.11" y1="22.95" x2="91.23" y2="22.95" xlink:href="#Degradado_sin_nombre_26"/><linearGradient id="Degradado_sin_nombre_26-6" x1="17.9" y1="218.83" x2="129.43" y2="218.83" xlink:href="#Degradado_sin_nombre_26"/><linearGradient id="Degradado_sin_nombre_26-7" x1="35.82" y1="130.39" x2="111.51" y2="130.39" xlink:href="#Degradado_sin_nombre_26"/><linearGradient id="Degradado_sin_nombre_26-9" x1="0" y1="254.74" x2="147.34" y2="254.74" xlink:href="#Degradado_sin_nombre_26"/><linearGradient id="Degradado_sin_nombre_26-10" x1="23.33" y1="175.73" x2="124" y2="175.73" xlink:href="#Degradado_sin_nombre_26"/><linearGradient id="Degradado_sin_nombre_26-11" x1="41.89" y1="116.01" x2="105.44" y2="116.01" xlink:href="#Degradado_sin_nombre_26"/><linearGradient id="Degradado_sin_nombre_26-12" x1="35.72" y1="72.85" x2="111.61" y2="72.85" xlink:href="#Degradado_sin_nombre_26"/></defs><g id="Capa_2" data-name="Capa 2"><g id="Capa_1-2" data-name="Capa 1"><path id="path1593" class="cls-1" d="M23.2,214.67s31.79-.25,50.47-.25v8.47c-21.72,0-50.6.34-50.6.34-6.95,0-6.88-8.56.13-8.56Z"/><path id="path1591" class="cls-2" d="M42.6,137.14c-9.1,0-9-13.58,0-13.65H73.67v13.77C55.91,137.36,49,137.14,42.6,137.14Z"/><path id="path1589" class="cls-3" d="M48.21,100.55a3.92,3.92,0,1,0,0,7.81c3.83,0,12.85.13,25.46.13s21.63-.13,25.46-.13a3.92,3.92,0,1,0,0-7.81c-9.91,0-18.42.08-25.46.08S58.11,100.55,48.21,100.55Z"/><path id="path1587" class="cls-4" d="M73.67,97s-26.88.07-28.28-.89-6.16-23.27-9.67-36.34c10.09-10.09,23.07-10.94,38-11Z"/><path id="path827" class="cls-5" d="M70.83,0c-2.09.08-2.14.91-2.14,6.32,0,3.55,0,5.6-.35,6s-2.48.18-6.53.18c-5.26,0-5.7-.76-5.7,5.25,0,5.14-.24,4.85,6.76,4.85,2.95,0,5.08,0,5.45.34s.23,4.63.23,11.41c0,13-1.21,11.47,5.12,11.52s5.11,1.45,5.11-11.52c0-6.78-.13-11,.24-11.41s2.49-.34,5.44-.34c7,0,6.76.29,6.76-4.85,0-6-.43-5.25-5.69-5.25-4.06,0-6.15.2-6.53-.18s-.36-2.43-.36-6c0-7.21-.09-6.29-5-6.29C72.45,0,71.53,0,70.83,0Z"/><path id="path1559" class="cls-6" d="M73.67,214.43c-18.68,0-50.47.24-50.47.24-7,0-7.07,8.56-.13,8.56,0,0,28.88-.34,50.6-.34s50.6.34,50.6.34c6.94,0,6.87-8.56-.13-8.56C124.14,214.67,92.35,214.43,73.67,214.43Z"/><path id="path1557" class="cls-7" d="M42.6,123.49c-9,.07-9.1,13.65,0,13.65,6.35,0,13.31.22,31.07.12,17.75.1,24.72-.12,31.06-.12,9.1,0,9-13.58,0-13.65H42.6Z"/><path id="path1553" class="cls-4" d="M73.67,97s-26.88.07-28.28-.89-6.16-23.27-9.67-36.34c10.09-10.09,23.07-10.94,38-11Z"/><path id="path1535" class="cls-8" d="M26,226.29c-2,0-4.62.43-4.62,2.7,0,9.84-14.25,17.87-20,25.84C0,256.25-1.53,279.77,3.19,283.07c6.12,0,60.82.12,70.48.12s64.36-.12,70.48-.12c4.72-3.3,3.15-26.82,1.89-28.24-5.8-8-20-16-20-25.84,0-2.27-2.63-2.7-4.62-2.7H26Z"/><path id="path1549" class="cls-9" d="M46.48,140.65a2.29,2.29,0,0,0-1.77,1c-10.35,38.64-21.38,54.79-21.38,67.21,0,0,.17,2,3.26,2h94.15c3.09,0,3.26-2,3.26-2,0-12.42-11-28.57-21.38-67.21a2.26,2.26,0,0,0-1.77-1H46.48Z"/><path id="path1547" class="cls-10" d="M73.67,112.2c-8.9,0-18.7.12-28.33.1-4.53,0-4.7,7.52.11,7.52,7,0,15,0,28.22,0s21.17,0,28.22,0c4.8,0,4.64-7.51.11-7.52C92.37,112.32,82.57,112.2,73.67,112.2Z"/><path id="path1543" class="cls-11" d="M73.67,48.74c-14.88,0-27.86.89-37.95,11C39.23,72.8,44,95.09,45.39,96.06S73.67,97,73.67,97s26.88.07,28.27-.89,6.17-23.26,9.67-36.34C101.53,49.63,88.54,48.78,73.67,48.74Z"/></g></g></svg>