<svg xmlns="http://www.w3.org/2000/svg" xmlns:xlink="http://www.w3.org/1999/xlink" viewBox="0 0 116.09 196.14"><defs><style>.cls-1{fill:url(#Degradado_sin_nombre_8);}.cls-2{fill:url(#Degradado_sin_nombre_8-2);}.cls-3{fill:url(#Degradado_sin_nombre_8-3);}.cls-4{fill:url(#Degradado_sin_nombre_8-4);}.cls-5{fill:url(#Degradado_sin_nombre_8-5);}.cls-6{fill:url(#Degradado_sin_nombre_8-6);}</style><linearGradient id="Degradado_sin_nombre_8" y1="188.23" x2="116.09" y2="188.23" gradientUnits="userSpaceOnUse"><stop offset="0" stop-color="#f9b806"/><stop offset="1" stop-color="#ff9f00"/></linearGradient><linearGradient id="Degradado_sin_nombre_8-2" x1="0.91" y1="173.62" x2="115.18" y2="173.62" xlink:href="#Degradado_sin_nombre_8"/><linearGradient id="Degradado_sin_nombre_8-3" x1="3.65" y1="154.81" x2="112.43" y2="154.81" xlink:href="#Degradado_sin_nombre_8"/><linearGradient id="Degradado_sin_nombre_8-4" x1="13.1" y1="95.65" x2="102.99" y2="95.65" xlink:href="#Degradado_sin_nombre_8"/><linearGradient id="Degradado_sin_nombre_8-5" x1="26.83" y1="47.47" x2="89.26" y2="47.47" xlink:href="#Degradado_sin_nombre_8"/><linearGradient id="Degradado_sin_nombre_8-6" x1="13.94" y1="21.26" x2="102.15" y2="21.26" xlink:href="#Degradado_sin_nombre_8"/></defs><g id="Capa_2" data-name="Capa 2"><g id="Capa_1-2" data-name="Capa 1"><path id="path2771" class="cls-1" d="M3.17,180.31A3,3,0,0,0,.7,182.23c-.7,1.79-.7,10-.7,10,.1,3.4.25,3.95,2.42,3.95H113.67c2.17,0,2.32-.55,2.42-3.95,0,0,0-8.17-.69-10a3,3,0,0,0-2.48-1.92l-54.87.12Z"/><path id="path2769" class="cls-2" d="M4.87,170.52c-5.25,0-5.27,6.08-.11,6.08,6.44,0,24.5.23,53.29,0,28.78.2,46.85,0,53.28,0,5.16,0,5.14-6.08-.11-6.08s-20.31.06-53.17.06S10.12,170.52,4.87,170.52Z"/><path id="path2767" class="cls-3" d="M12.82,142.72a1.42,1.42,0,0,0-1.49.79c-5.73,11.71-8,21.79-7.63,22.57s.81.8,2.05.8l52.29,0,52.3,0c1.24,0,1.66-.14,2-.8s-1.9-10.86-7.63-22.57a1.43,1.43,0,0,0-1.49-.79l-45.23,0Z"/><path id="path2765" class="cls-4" d="M28.65,52.71c-1.08,0-1.07,1.51-1.07,1.51L26.7,73.55c-1.07,23.31-2.78,33.8-9.39,50.94-4.06,10.74-4.46,13-4.11,13.6s.59.48,1.87.48c1.95,0,20.73,0,43,0s41,0,43,0c1.28,0,1.51.13,1.86-.48s0-2.86-4.1-13.6c-6.61-17.14-8.33-27.63-9.39-50.94l-.88-19.33s0-1.52-1.08-1.51-29.39,0-29.39,0S29.73,52.73,28.65,52.71Z"/><path id="path2763" class="cls-5" d="M29,45.16c-2.66,0-3,4.61-.17,4.61H87.28c2.85,0,2.49-4.61-.17-4.61-11.57.05-19,0-29.06,0S40.55,45.21,29,45.16Z"/><path id="path2751" class="cls-6" d="M46.54,0C45,0,42.93,0,40.09,0c-8.55,0-8.42-.63-8.42,5,0,4.53.24,4.5-2.63,4.5-2.55,0-2.54-.1-4-5.67C24,.18,24.2.59,19.51.59c-3.89,0-4.72-.13-5.42.56-.88.88,2.47,29.1,3.67,31,.5.81.59,1.47,3.79,1.47,3.72,0,3.78,1.86,3.78,3.14,0,5.25.16,5.74,2.48,5.72,9.22,0,20.13,0,30.24,0s21,0,30.24,0c2.31,0,2.47-.47,2.47-5.72,0-1.28.07-3.14,3.78-3.14,3.2,0,3.29-.66,3.79-1.47,1.2-1.94,4.55-30.16,3.67-31-.69-.69-1.53-.56-5.41-.56-4.7,0-4.52-.41-5.5,3.27-1.5,5.57-1.49,5.67-4,5.67-2.87,0-2.63,0-2.63-4.5,0-5.64.13-5-8.41-5C64.64,0,65.39-.61,65.39,4.78c0,5.23.36,4.73-7.34,4.73S50.7,10,50.7,4.78C50.7.74,51.12.08,46.54,0Z"/></g></g></svg>