<svg xmlns="http://www.w3.org/2000/svg" viewBox="0 0 489.41 120.13"><defs><style>.cls-1{fill:#02c0fe;}.cls-2{fill:#01c0fe;}</style></defs><g id="Capa_2" data-name="Capa 2"><g id="Capa_1-2" data-name="Capa 1"><path class="cls-1" d="M47.34,67a8.75,8.75,0,0,0-2.53,2.4A85.83,85.83,0,0,0,39,78.3c-2.66,4.34-5.41,8.61-9.24,12a21,21,0,0,1-6.51,4.08,1.79,1.79,0,0,1-1.21.26,33.13,33.13,0,0,0,2-4c2.34-6,1-11.26-3.44-15.83a34,34,0,0,0-6.44-5c0-.36.29-.3.44-.34,5.52-1.53,8.46-5.38,9-10.83.9-9.31-2.4-17-9.64-23l-.55-.42a10.93,10.93,0,0,1,2.86.54,28.61,28.61,0,0,0,8.15.78,12.53,12.53,0,0,0,9.07-5.19c3-3.8,4.69-8.21,6.27-12.69.62-1.74,1.16-3.5,1.86-5.24,0,.88,0,1.76,0,2.64.2,5.91,2.29,11.21,5.23,16.25,2.36,4,5.17,7.79,7.43,11.88a19.45,19.45,0,0,1,2.65,7.72c.07.81,0,1.62,0,2.44a8.67,8.67,0,0,0,.91-3.14,16.72,16.72,0,0,0-1.76-9.24c-.69-1.54-1.41-3.08-2-4.65-2.74-6.93.26-13.21,7.33-15.57a10.22,10.22,0,0,1,9,1.23c.41.25.78.54,1.39.95a10.51,10.51,0,0,1-.37-8.16,18,18,0,0,0,1.65,6.32,11.52,11.52,0,0,0,3.77,4.73,3.67,3.67,0,0,1,1.45,2.93c.07,2.53,1.49,3.93,3.49,5.11s2,2.61.45,4.17a2.57,2.57,0,0,1-.29.28c-.51.39-1,1-1.54,1.09s-.57-.92-.93-1.37a10.71,10.71,0,0,0-2.86-2.55,16.31,16.31,0,0,0-5.49-2c-1.77-.36-2.3-1.15-1.84-2.91a3.83,3.83,0,0,0-1.16-3.87c-2.76-2.8-5.93-3-8.5-.41a5.06,5.06,0,0,0-1.29,5,7.51,7.51,0,0,0,.21.78,77.25,77.25,0,0,0,6,11.67c.44-4.48.09-8.74-2.36-12.62C61.53,31,61,30,60.35,29a.8.8,0,0,1,.17-1.22,5.13,5.13,0,0,1,1.83-1.07c1.49-.47,1.9-.32,2.79.95a36.63,36.63,0,0,1,5,8.7,19.93,19.93,0,0,1,.82,10.49c0,.16,0,.33-.06.5s0,.2,0,.51A12.82,12.82,0,0,0,72.7,44,50.24,50.24,0,0,0,74,37.22c.15-1.1.24-1.14,1.26-.65a13.63,13.63,0,0,1,3.1,2.28,1,1,0,0,1,.35,1,21.18,21.18,0,0,1-.34,2.41,2,2,0,0,0,.83,2.34c2.28,1.81,4.64,3.35,7.66,3.71a6.16,6.16,0,0,1,5,3,3.58,3.58,0,0,0,2.83,1.41c.8.12,1.62.13,2.43.21,1.89.18,2.7,1.24,2.4,3.1a.31.31,0,0,1,0,.1c-.25.74-.3,1.71-.8,2.15s-1.24-.41-1.86-.68a12.4,12.4,0,0,0-8.26-.3c-.52.14-1,.35-1.56.47a2.15,2.15,0,0,1-2.68-1.27A5.34,5.34,0,0,0,78,53.36a6.34,6.34,0,0,0-5,4.19,72,72,0,0,0-2,6.93,15.11,15.11,0,0,1-5.8,8.32C59.59,77,54.49,81.8,50.83,88a21.53,21.53,0,0,0-3.42,10.6A12.52,12.52,0,0,0,56,111.22a24.82,24.82,0,0,0,12.73.91c13.43-2.12,23.07-9.73,30-21.06a50.86,50.86,0,0,0,7.49-29.56,23.41,23.41,0,0,0-.59-4.79c-.92.45-1.48,1.29-2.46,1.89.64-4.37,0-8.55-.75-12.75.55.08.81.47,1.13.75a25,25,0,0,1,6.55,9.78c.15.39.2.85.73,1-1.23.16-2.16-.74-3.36-.94.22,1.45.47,2.84.63,4.23,1.3,11.29-.51,22-6.27,31.89-8.17,14-20.22,23-36.11,26.42-9.24,2-16.89-1.45-22.75-8.69-4.11-5.08-5.7-11.06-5.51-17.54.25-9,3.9-16.83,8.89-24.13A4.73,4.73,0,0,0,47.34,67ZM81.65,48.63l0,0,0,0a17.59,17.59,0,0,1-3.77-3.7c-.14.56-.25.92-.31,1.28a2,2,0,0,1-1.82,1.91,10.17,10.17,0,0,0-6.64,4.27c-.19.28-.51.59-.17.88s.57-.12.79-.35a1.89,1.89,0,0,0,.25-.31,9.55,9.55,0,0,1,5.08-3.48A13.5,13.5,0,0,1,81.65,48.63Zm-5-16.7c.26-1.77-.63-2.68-1.58-3.56-.24-.22-.55-.43-.72,0s-.72.79-.12,1.13A7.85,7.85,0,0,1,76.65,31.93Zm14,21a4.08,4.08,0,0,0-3.19-2c-.24,0-.76-.43-.76.19,0,.39,0,1,.69,1A6.93,6.93,0,0,1,90.63,52.89Z"/><path class="cls-2" d="M226.18,59.71a8.17,8.17,0,0,1,6,6.12c1.29,5.62-.49,12.13-8.46,14.08a21.17,21.17,0,0,1-5,.62c-5.12,0-10.24,0-15.36,0-.71,0-.9-.19-.9-.9q0-19.35,0-38.7c0-.72.21-.89.91-.89,4.71,0,9.42,0,14.13,0a20.79,20.79,0,0,1,8,1.45,10,10,0,0,1,5.7,12.76A8.64,8.64,0,0,1,227,59.14C226.75,59.29,226.38,59.33,226.18,59.71Zm-10.8,3.15h0c-1.26,0-2.51,0-3.77,0-.65,0-.79.2-.78.81,0,3.21,0,6.43,0,9.65,0,.47,0,.74.64.73,2.4,0,4.81,0,7.22-.05,3.2-.12,5.24-1.85,5.47-4.76.31-3.83-1.36-6.19-5.44-6.36C217.62,62.83,216.5,62.86,215.38,62.86Zm-4.54-11c0,1.46,0,2.91,0,4.36,0,.32-.12.73.44.71,2.7-.09,5.42.26,8.1-.28a4.48,4.48,0,0,0,3.48-2.51A4.89,4.89,0,0,0,219,47a69,69,0,0,0-7.61-.19c-.59,0-.53.36-.53.73Z"/><path class="cls-2" d="M418.58,60.32c0-6.4,0-12.8,0-19.21,0-.86.24-1,1.07-1,4.81,0,9.63,0,14.44,0a18.63,18.63,0,0,1,8.1,1.61,10.53,10.53,0,0,1,6.37,9.62c.17,3.3-.35,6.41-2.61,9a11.38,11.38,0,0,1-3.79,2.85c-.67.31-.71.55-.38,1.18,2.69,5,5.33,10,8,15.06.58,1.1.58,1.1-.68,1.1-2.34,0-4.68,0-7,0a1.23,1.23,0,0,1-1.32-.79c-2.22-4.41-4.49-8.8-6.72-13.2a1.27,1.27,0,0,0-1.37-.87c-1.63.06-3.26,0-4.88,0-.69,0-.84.22-.84.86,0,4.34,0,8.67,0,13,0,.81-.23,1-1,1q-3.15-.09-6.3,0c-.83,0-1.09-.17-1.08-1C418.6,73.12,418.58,66.72,418.58,60.32Zm8.36-7.41c0,1.79,0,3.59,0,5.39,0,.32-.1.71.45.69,2.78-.09,5.57.28,8.33-.23,2.94-.54,4.55-2.79,4.49-6.09s-1.72-5.21-4.71-5.68c-2.66-.42-5.35-.09-8-.19-.59,0-.55.34-.55.72C426.94,49.32,426.94,51.11,426.94,52.91Z"/><path class="cls-2" d="M270.86,60.27c0-6.4,0-12.8,0-19.2,0-.8.21-1,1-1,4.84,0,9.69,0,14.54,0a18.45,18.45,0,0,1,8.19,1.67,10.53,10.53,0,0,1,6.24,9.5c.17,3.34-.35,6.48-2.65,9.11a11.14,11.14,0,0,1-3.71,2.79c-.69.33-.76.58-.4,1.25,2.67,5,5.3,10,7.94,15,.61,1.15.61,1.15-.7,1.15-2.27,0-4.55,0-6.82,0a1.43,1.43,0,0,1-1.55-.93c-2.16-4.32-4.41-8.61-6.56-12.94a1.53,1.53,0,0,0-1.7-1c-1.53.07-3.05.06-4.58,0-.72,0-.9.2-.9.91,0,4.3,0,8.6,0,12.9,0,.84-.21,1.08-1.06,1.06q-3.15-.11-6.3,0c-.9,0-1-.28-1-1.09C270.87,73.07,270.86,66.67,270.86,60.27Zm8.35-7.39c0,1.8,0,3.59,0,5.39,0,.3-.14.74.42.72,2.84-.1,5.71.32,8.52-.27s4.42-2.86,4.32-6.22A5.32,5.32,0,0,0,287.8,47c-2.69-.42-5.41-.09-8.12-.19-.55,0-.47.37-.47.69Z"/><path class="cls-2" d="M307.08,60.36c0-6.4,0-12.8,0-19.2,0-.93.26-1.12,1.13-1.09,2.1.06,4.2,0,6.3,0,.76,0,1,.17,1,1,0,4.81,0,9.61,0,14.42,0,.84.13,1.15,1.08,1.14q7.06-.09,14.14,0c.94,0,1.09-.28,1.09-1.14,0-4.81,0-9.61,0-14.42,0-.77.2-1,1-1,2.2,0,4.4,0,6.61,0,.59,0,.82.12.81.78q0,19.44,0,38.9c0,.64-.19.8-.8.79-2.24,0-4.48,0-6.71,0-.77,0-.87-.28-.87-.94,0-5.08,0-10.16,0-15.24,0-.85-.14-1.15-1.09-1.14q-7.06.09-14.14,0c-.95,0-1.08.31-1.08,1.14,0,5.05,0,10.09,0,15.14,0,.87-.25,1.06-1.08,1q-3.15-.09-6.3,0c-.79,0-1-.19-1-1C307.09,73.16,307.08,66.76,307.08,60.36Z"/><path class="cls-2" d="M381.75,60.36c0-6.41,0-12.81,0-19.21,0-.8.14-1.1,1-1.08,3.87,0,7.73,0,11.6,0,9.9,0,17.21,6.7,18.17,16.54a28.67,28.67,0,0,1-.82,11.47,17.35,17.35,0,0,1-16.45,12.41c-4.24.09-8.48,0-12.72,0-.73,0-.8-.3-.8-.9C381.76,73.23,381.75,66.79,381.75,60.36Zm8.36.06c0,4.23,0,8.46,0,12.69,0,.77.2,1,1,.94,1.11-.07,2.23,0,3.35,0,4.47-.07,7.67-2.3,8.94-6.58a25.18,25.18,0,0,0,0-14.11,8.36,8.36,0,0,0-7.44-6.41c-1.62-.22-3.25,0-4.87-.13-.75,0-1,.16-1,.94C390.13,52,390.11,56.19,390.11,60.42Z"/><path class="cls-2" d="M489.35,80.54c-2.71,0-5.45,0-8.2,0-.51,0-.59-.31-.71-.68-.76-2.28-1.56-4.54-2.29-6.83a1,1,0,0,0-1.12-.85q-6.51.06-13,0A.94.94,0,0,0,463,73c-.73,2.28-1.5,4.55-2.26,6.83-.12.38-.2.74-.78.73-2.74,0-5.48,0-8.35,0,.93-2.52,1.82-5,2.73-7.38q6-16,11.92-32c.29-.78.62-1.11,1.5-1.07,2,.07,3.93,0,5.89,0a.9.9,0,0,1,1,.68q7.29,19.53,14.62,39C489.35,80,489.5,80.22,489.35,80.54ZM470.63,50.69l-.24,0q-2.34,7.07-4.69,14.12c-.15.43-.16.68.43.67,3.12,0,6.23,0,9.46,0C473.92,60.5,472.28,55.59,470.63,50.69Z"/><path class="cls-2" d="M238.71,60.28c0-6.4,0-12.8,0-19.2,0-.79.19-1,1-1q12.56,0,25.12,0c.77,0,1.05.16,1,1-.07,1.62-.06,3.25,0,4.87,0,.73-.21.89-.91.89-5.59,0-11.18,0-16.78,0-.93,0-1.11.27-1.09,1.13.06,2.6,0,5.21,0,7.82,0,.68.2.84.85.84,4.75,0,9.49,0,14.24,0,.75,0,1,.16,1,.94q-.11,2.24,0,4.47c0,.86-.16,1.15-1.1,1.14-4.64-.06-9.28,0-13.93-.05-.87,0-1.05.25-1,1.08q.08,4.51,0,9c0,.72.21.89.91.89,5.63,0,11.25,0,16.88,0,.77,0,1.06.14,1,1-.08,1.59,0,3.18,0,4.77,0,.54-.08.78-.7.78q-12.87,0-25.73,0c-.87,0-.7-.5-.7-1Z"/><path class="cls-1" d="M137.25,60.34a32.78,32.78,0,0,0,.77,8c1.22,4.42,4.27,6.44,8.84,5.88,4.08-.51,5.79-2.1,6.49-6.16.12-.69.3-1,1.05-.93,2.2.06,4.41,0,6.61,0,.69,0,.86.18.78.86a14.32,14.32,0,0,1-12.88,13,20.6,20.6,0,0,1-8.56-.46,14.45,14.45,0,0,1-10-9.82,31.72,31.72,0,0,1,0-20.44c2.7-8,9.58-11.46,17.68-10.63,4.44.46,8.22,2.16,11,5.82a16.42,16.42,0,0,1,2.87,7.5c.11.68-.1.88-.78.87q-3.36-.06-6.71,0c-.58,0-.88-.11-.87-.76a6.55,6.55,0,0,0-.22-1.3c-.81-3.43-2.94-5.1-6.74-5.29-5.12-.25-8.1,2.42-8.88,8A47.6,47.6,0,0,0,137.25,60.34Z"/><path class="cls-2" d="M163.91,40.09c2.83,0,5.67,0,8.51,0,.57,0,.64.41.8.76l7.5,16.31.53,1.1,5.81-12.54c.75-1.63,1.52-3.24,2.24-4.88a1,1,0,0,1,1.13-.76c2.47,0,4.95,0,7.42,0,.84,0,.87.2.52.88q-6.21,12-12.39,24a4.52,4.52,0,0,0-.51,2.13c0,4.2,0,8.4,0,12.6,0,.71-.2.91-.91.9-2.2,0-4.4-.06-6.61,0-.87,0-1-.32-1-1,0-4.17,0-8.33,0-12.5a4.23,4.23,0,0,0-.49-2q-6.18-11.94-12.32-23.9A1.34,1.34,0,0,1,163.91,40.09Z"/><path class="cls-2" d="M360.52,58.25l4.6-10q1.74-3.77,3.49-7.55c.15-.32.24-.67.76-.67,2.83,0,5.67,0,8.51,0a2.14,2.14,0,0,1-.44,1.2Q371.34,53.16,365.21,65a4,4,0,0,0-.47,1.94c0,4.23,0,8.47,0,12.7,0,.69-.15.93-.89.91q-3.35-.06-6.71,0c-.74,0-.88-.24-.88-.92,0-4.2,0-8.4,0-12.6a4.13,4.13,0,0,0-.48-2q-6.18-11.94-12.33-23.89c-.52-1-.52-1,.65-1,2.37,0,4.75,0,7.12,0a1.17,1.17,0,0,1,1.27.84c2.47,5.45,5,10.88,7.49,16.32C360.16,57.53,360.31,57.83,360.52,58.25Z"/><path class="cls-1" d="M18.73,24.66c-1.48,1.57-2.84,3-4.06,4.5C5.52,40.72,1.55,53.9,3.85,68.41,7,88.56,18.59,102.27,37.76,109.46a3.37,3.37,0,0,1,2,1.56,23,23,0,0,0,7.9,8.18,3.88,3.88,0,0,1,.66.46.37.37,0,0,1,.06.36.39.39,0,0,1-.35.1c-2.92-.81-6-1-8.85-2Q7.4,107.83.5,75.22a28.61,28.61,0,0,1-.44-6.66c.1-3.65-.32-7.33.24-11A54,54,0,0,1,17.87,25a3,3,0,0,1,.39-.31S18.39,24.69,18.73,24.66Z"/><path class="cls-1" d="M60.46,10a11.39,11.39,0,0,1-7.36-.16c-.29-.11-.68-.11-.83-.5a16.22,16.22,0,0,0,9-2c.32-.17.69-.29.87-.65.13-.09.33-.21.21-.35s-.32,0-.46.13c-2,1.58-3.92.69-5.9-.1l2.73-.14c1.15-.06,2.28-.48,3.4-.48a4.27,4.27,0,0,0,2.46-1.13,4.49,4.49,0,0,1,3.74-.79,2.81,2.81,0,0,0,2.28-.63,7.87,7.87,0,0,0,2.06-2.09,2.57,2.57,0,0,1,4.28.06c0,.08.12.16.18.25.38.63,1.07,1.26,1.08,1.9,0,.84-1.11.7-1.7,1a11.53,11.53,0,0,0-5.14,6.57c-.13.35-.23.7-.36,1.05-.58,1.52-1.38,1.9-2.93,1.4a4.26,4.26,0,0,0-5.23,1.73,7,7,0,0,0-1.45,4.94c.06.53-.09.73-.54.89a18.51,18.51,0,0,0-2.42,1c-.82.45-1,.12-1.12-.63a14,14,0,0,1,1.42-7.78c.57-1.18,1.25-2.31,1.89-3.47.07-.07.13-.14,0-.22S60.51,9.94,60.46,10Zm8.61-4a3.72,3.72,0,0,0-3.55,1.17c-.19.16-.63.4-.15.68.32.18.69.79,1.11.19A7.11,7.11,0,0,1,69.07,6Z"/><path class="cls-1" d="M80.18,32.61a5.38,5.38,0,0,1-.33-.81,18.24,18.24,0,0,0-1.77-5.26c-.75-1.57-.62-1.86.66-3.07A7.34,7.34,0,0,1,82,21.84c.8-.22,1.6-.47,2.71-.79-3-1.24-5.16-3-6.37-5.74A17.75,17.75,0,0,0,85,19a11.08,11.08,0,0,0,4.21.32c2-.19,3.8.1,5.22,1.81.88,1.05,2.26.94,3.53.78a15.06,15.06,0,0,1,2.5-.36,2,2,0,0,1,2.12,1.79,9.11,9.11,0,0,1-.17,3.33c-.08.41-.29.48-.65.34-3.55-1.34-6.71-.3-9.74,1.56-.29.18-.57.38-.87.54a1.94,1.94,0,0,1-3-.67c-1.85-2.69-4.9-2.52-6.52.35A26.19,26.19,0,0,0,80.18,32.61Zm13.4-9.41a3.77,3.77,0,0,0-3.52-1.35c-.25,0-.74-.1-.56.41.13.36,0,1.09.8.88A6.66,6.66,0,0,1,93.58,23.2Z"/><path class="cls-1" d="M83,15.28a24.83,24.83,0,0,0,6.1,3.66C86.34,19.43,84.23,18.13,83,15.28Z"/><path class="cls-1" d="M77,26.08c-1.33-1-2.25-1.84-2-3.41.11-.74,0-1.52.15-2.3A43.25,43.25,0,0,0,77,26.08Z"/><path class="cls-1" d="M81.22,43.33A35.2,35.2,0,0,0,85,47.22C82.83,47,81.52,45.68,81.22,43.33Z"/></g></g></svg>