<svg xmlns="http://www.w3.org/2000/svg" viewBox="0 0 487.54 95.38"><defs><style>.cls-1{fill:#fff;}</style></defs><g id="Capa_2" data-name="Capa 2"><g id="Capa_1-2" data-name="Capa 1"><path class="cls-1" d="M31.13,22.19C19,21.17,9.33,15,0,7.35c3.56,1.21,6.72,2.4,10,3.37A73.2,73.2,0,0,0,40.73,13.4a5.1,5.1,0,0,0,2.34-1C49,7.8,55.82,6.47,63.13,7.27a14.44,14.44,0,0,1,7.36,3.33A12.28,12.28,0,0,0,81.9,12.94c2.77-.79,5.41-2,8.11-3.06,2.55-1,5-2.09,7.67-2.79,3.21-.85,5.71.16,7.91,2.95,2.69,3.4,3.44,7.23,3.9,11.26.25,2.18.36,4.37.54,6.55.14,1.75-.29,2.09-1.81,1.36a10.19,10.19,0,0,0-5.66-.84,66.37,66.37,0,0,0-13.15,2.72,28.45,28.45,0,0,0-11.35,6.72c-3.76,3.58-7.66,7-11.47,10.53-3.65,3.39-7.68,3.86-12,1.58-2.13-1.13-4.16-2.46-6.25-3.68-2.91-1.7-5.93-3.08-9.42-3-3.24.11-6,1.67-8.66,3.2A34.05,34.05,0,0,0,17.91,58a72.61,72.61,0,0,0-5.34,10.47A69.61,69.61,0,0,0,7.62,84.31c-.56,3.56-.86,7.17-1.31,11.07-.68-2-1.39-3.67-1.84-5.44A82.06,82.06,0,0,1,2,79.31a77.29,77.29,0,0,1-.31-11.69,73.5,73.5,0,0,1,1-8.47,33,33,0,0,1,2.54-9c1-2.13,1.9-4.3,3.06-6.33,2-3.45,4.82-6.22,7.38-9.23A51.37,51.37,0,0,1,30.3,23.08c.26-.14.52-.3.78-.46ZM51.85,21,56,25.72c4.82-2.27,9.52-4.47,15-4.63C67,16.4,56.73,18.35,51.85,21Z"/><path class="cls-1" d="M44.76,8.78a26.17,26.17,0,0,1-11.33,3.31,3.94,3.94,0,0,1-2.1-.66c-1.63-1-3.2-2.16-4.75-3.31-3.36-2.49-6.68-5-10-7.52a.83.83,0,0,1-.35-.6C18.48.77,20.8,1.45,23,2.34c3.39,1.35,6.72,2.84,10.08,4.26A24.81,24.81,0,0,0,44.28,8.74,2.59,2.59,0,0,1,44.76,8.78Z"/><path class="cls-1" d="M170.29,48.39l7.59-17.9h10.73L175.33,56.91V71.72H165.25V56.91L152,30.49h10.68Z"/><path class="cls-1" d="M254.6,54.22H239v9.86h18.46v7.64H229V30.49h28.46v7.67H239v8.7H254.6Z"/><path class="cls-1" d="M333.79,71.72H323.9V54.5H309.26V71.72h-9.94V30.49h9.94V46.86H323.9V30.49h9.89Z"/><path class="cls-1" d="M354.38,48.39,362,30.49H372.7L359.42,56.91V71.72H349.34V56.91L336.08,30.49h10.68Z"/><path class="cls-1" d="M474.46,64H460.84l-2.38,7.7H447.84L463,30.49h9.35l15.23,41.23H476.87Zm-11.25-7.68h8.87L467.63,42Z"/><path class="cls-1" d="M286.12,54.65a12.3,12.3,0,0,0,5.45-4.59,13.28,13.28,0,0,0,1.75-7.12,11,11,0,0,0-4.14-9.2q-4.12-3.26-11.47-3.25H261.48v7.64h16.23A5.6,5.6,0,0,1,282,39.65a5.86,5.86,0,0,1,1.44,4.19A5.73,5.73,0,0,1,282,48a5.64,5.64,0,0,1-4.26,1.49H261.48V71.72h9.94V57.14h5.39l7.27,14.58h10.65V71.3Z"/><path class="cls-1" d="M221.83,53.85a8.68,8.68,0,0,0-5-3.17,8.61,8.61,0,0,0,4.33-3.34,9.82,9.82,0,0,0,1.47-5.47,9.71,9.71,0,0,0-4.15-8.47q-4.14-2.91-12.1-2.91H191.62v7.64h14.81a8.09,8.09,0,0,1,4.84,1.15,4.47,4.47,0,0,1,1.5,3.77,4.2,4.2,0,0,1-1.39,3.43c-.92.78-2.47,1.18-4.64,1.2h-.48v0H191.62v24h16.73q7.54,0,11.37-3.1t3.84-9.1A9.19,9.19,0,0,0,221.83,53.85Zm-9.63,9a6.14,6.14,0,0,1-4.13,1.24h-6.51V54.19h7q5.13,0,5.13,5.18A4.28,4.28,0,0,1,212.2,62.84Z"/><path class="cls-1" d="M126.44,44.83a12,12,0,0,1,1.45-4.37,6,6,0,0,1,5.44-2.78q3.66,0,5.44,1.64t1.9,5.41h9.91a15.65,15.65,0,0,0-5.18-10.89q-4.56-3.95-12.07-4a17,17,0,0,0-9.18,2.48,16,16,0,0,0-6.07,7,22.13,22.13,0,0,0-1.67,5.44Z"/><path class="cls-1" d="M138.68,62.89a7.66,7.66,0,0,1-5.24,1.61q-4,0-5.7-2.83t-1.66-9.43V51.1H116V52q0,9.66,4.67,14.95t12.8,5.3a20.28,20.28,0,0,0,8.77-1.81,14.05,14.05,0,0,0,6-5.12,15,15,0,0,0,2.32-7.6h-9.88Q140.49,61.27,138.68,62.89Z"/><path class="cls-1" d="M405.62,40a17.36,17.36,0,0,0-6.81-7A19.46,19.46,0,0,0,389,30.49H375.7v7.67H389a7.88,7.88,0,0,1,6.69,3q2.29,3,2.29,9V52c0,4-.76,7-2.29,9.05a7.74,7.74,0,0,1-6.57,3h-3.46V49.52H375.7v22.2h13.57a19.12,19.12,0,0,0,9.7-2.56,17.52,17.52,0,0,0,6.74-7A21.34,21.34,0,0,0,408.1,52V50.09A21.07,21.07,0,0,0,405.62,40Z"/><path class="cls-1" d="M437.84,54.65a12.36,12.36,0,0,0,5.45-4.59A13.37,13.37,0,0,0,445,42.94a11,11,0,0,0-4.13-9.2q-4.14-3.26-11.47-3.25H413.2v7.64h16.23a5.61,5.61,0,0,1,4.25,1.52,5.86,5.86,0,0,1,1.44,4.19A5.77,5.77,0,0,1,433.69,48a5.64,5.64,0,0,1-4.26,1.49H413.2V71.72h9.94V57.14h5.38l7.28,14.58h10.65V71.3Z"/></g></g></svg>