<svg xmlns="http://www.w3.org/2000/svg" viewBox="0 0 35.84 56.84"><defs><style>.cls-1{fill:#0060ab;}.cls-1,.cls-2{fill-rule:evenodd;}.cls-2{fill:#0076be;}</style></defs><g id="Capa_2" data-name="Capa 2"><g id="Capa_1-2" data-name="Capa 1"><path class="cls-1" d="M15.51,56.83h-.22c-5,0-10,0-15,0-.2,0-.24-.05-.25-.25a5.81,5.81,0,0,1,1.48-4,1.06,1.06,0,0,0,.28-.82,5,5,0,0,1,1.08-3.13,13.59,13.59,0,0,1,3.37-3.09c.42-.3.85-.61,1.28-.9a.17.17,0,0,0,.08-.25A3.63,3.63,0,0,1,7.29,43,3.28,3.28,0,0,1,8,41.19,8.87,8.87,0,0,1,9.09,40a7.66,7.66,0,0,0,1.71-2.57,13.43,13.43,0,0,0,.9-2.61,13.74,13.74,0,0,0,.35-2.21c.06-.82.1-1.65.13-2.48L12.27,28c0-.92.07-1.84.1-2.76,0-.14,0-.19-.16-.21A14.28,14.28,0,0,1,10,24.42a5.16,5.16,0,0,1-2-1.14A1.75,1.75,0,0,1,7.48,22a6,6,0,0,1,0-.85A1.87,1.87,0,0,1,8.28,20a6.18,6.18,0,0,1,1.62-.82.31.31,0,0,0,.22-.16,3,3,0,0,1,1.36-1.42c.31-.18.31-.2.07-.47s-.69-.65-1-1a8.53,8.53,0,0,1-2.39-4.57,9.19,9.19,0,0,1-.22-2,8.67,8.67,0,0,1,.73-3.33A11.72,11.72,0,0,1,10.4,3.35,8.81,8.81,0,0,1,13.54,1,11.23,11.23,0,0,1,16.19.17a3,3,0,0,1,.9-.11L18,1c.16.17.31.33.45.51.48.62,1,1.23,1.42,1.88a14.08,14.08,0,0,1,1.81,3.43,30.44,30.44,0,0,1,.84,3,8.91,8.91,0,0,1,.37,2,11,11,0,0,1-.1,2.36,9.94,9.94,0,0,1-1.36,3.57.32.32,0,0,0,0,.43,7.83,7.83,0,0,1,.81,1.44,6.59,6.59,0,0,1,.48,3.4,6.94,6.94,0,0,1-.67,2.23,5.82,5.82,0,0,1-1.21,1.62.44.44,0,0,0-.15.35c0,.37,0,.73,0,1.09A2.7,2.7,0,0,0,21,29.3a6.28,6.28,0,0,1,.36,3.32c-.17,1.12-.51,2.2-.62,3.32a2.84,2.84,0,0,0-.06.87c.17.81.36,1.62.54,2.43A9.19,9.19,0,0,1,21.52,41a6.18,6.18,0,0,1-.25,1.86,13.55,13.55,0,0,1-1.36,3.35.4.4,0,0,0,0,.32,2.62,2.62,0,0,1-.19,1.7,18,18,0,0,1-1.16,2.16,1.62,1.62,0,0,0-.37,1.14,4.22,4.22,0,0,1,0,1.66,4.89,4.89,0,0,1-1.32,2.52C16.38,56.07,15.94,56.44,15.51,56.83Z"/><path class="cls-2" d="M15.24,56.83c.43-.39.87-.76,1.27-1.17a4.89,4.89,0,0,0,1.32-2.52,4.22,4.22,0,0,0,.05-1.66,1.62,1.62,0,0,1,.37-1.14,18,18,0,0,0,1.16-2.16,2.62,2.62,0,0,0,.19-1.7.4.4,0,0,1,0-.32A13.55,13.55,0,0,0,21,42.81,6.18,6.18,0,0,0,21.25,41a9.19,9.19,0,0,0-.32-1.71c-.18-.81-.37-1.62-.54-2.43a2.84,2.84,0,0,1,.06-.87c.11-1.12.45-2.2.62-3.32a6.28,6.28,0,0,0-.36-3.32,2.7,2.7,0,0,1-.21-1.05c0-.36,0-.72,0-1.09a.44.44,0,0,1,.15-.35,5.82,5.82,0,0,0,1.21-1.62A6.94,6.94,0,0,0,22.49,23a6.59,6.59,0,0,0-.48-3.4,7.83,7.83,0,0,0-.81-1.44.31.31,0,0,1,0-.43,9.94,9.94,0,0,0,1.36-3.57,11,11,0,0,0,.1-2.36,8.91,8.91,0,0,0-.37-2c-.26-1-.49-2-.84-3A14.08,14.08,0,0,0,19.63,3.4c-.45-.65-.94-1.26-1.42-1.88-.14-.18-.29-.34-.45-.51L16.82.06a1.49,1.49,0,0,1,.63,0,10.6,10.6,0,0,1,6.07,1.68,8.43,8.43,0,0,1,2.69,2.69,10.24,10.24,0,0,1,1.57,3.67,8.43,8.43,0,0,1,.07,2.7,9.8,9.8,0,0,1-1.5,4.15,10.36,10.36,0,0,1-1.81,1.93c-.54.49-.54.51.06.89A2.68,2.68,0,0,1,25.7,19a.39.39,0,0,0,.24.21,5.27,5.27,0,0,1,1.82,1,1.74,1.74,0,0,1,.61,1.39,5.4,5.4,0,0,1,0,.7,2,2,0,0,1-1,1.45,8.46,8.46,0,0,1-2.78,1.14l-1,.22c-.11,0-.14.08-.13.19a10.87,10.87,0,0,1,.06,1.28c0,.71,0,1.42.08,2.13.07,1.15.09,2.3.16,3.46a14.31,14.31,0,0,0,.45,3A12.82,12.82,0,0,0,26,39.13a11.8,11.8,0,0,0,1.27,1.38,4.35,4.35,0,0,1,1.2,1.92,3,3,0,0,1-.1,1.74c-.14.4-.14.4.21.65.93.67,1.89,1.31,2.76,2.06a7.89,7.89,0,0,1,2.58,3.62,4.7,4.7,0,0,1,.16,1.58.47.47,0,0,0,.13.35,6.62,6.62,0,0,1,1.57,3.11,5.84,5.84,0,0,1,.06,1.18c0,.08,0,.12-.11.12a.4.4,0,0,0-.11,0H15.24Z"/></g></g></svg>