<svg xmlns="http://www.w3.org/2000/svg" viewBox="0 0 290.98 56.84"><defs><style>.cls-1{fill:#0060ab;}.cls-1,.cls-2{fill-rule:evenodd;}.cls-2,.cls-3{fill:#0076be;}.cls-4{fill:#333;}</style></defs><g id="Capa_2" data-name="Capa 2"><g id="Capa_1-2" data-name="Capa 1"><path class="cls-1" d="M15.51,56.83h-.22c-5,0-10,0-15,0-.2,0-.24-.05-.25-.25a5.81,5.81,0,0,1,1.48-4,1.06,1.06,0,0,0,.28-.82,5,5,0,0,1,1.08-3.13,13.59,13.59,0,0,1,3.37-3.09c.42-.3.85-.61,1.28-.9a.17.17,0,0,0,.08-.25A3.63,3.63,0,0,1,7.29,43,3.28,3.28,0,0,1,8,41.19,8.87,8.87,0,0,1,9.09,40a7.66,7.66,0,0,0,1.71-2.57,13.43,13.43,0,0,0,.9-2.61,13.74,13.74,0,0,0,.35-2.21c.06-.82.1-1.65.13-2.48L12.27,28c0-.92.07-1.84.1-2.76,0-.14,0-.19-.16-.21A14.28,14.28,0,0,1,10,24.42a5.16,5.16,0,0,1-2-1.14A1.75,1.75,0,0,1,7.48,22a6,6,0,0,1,0-.85A1.87,1.87,0,0,1,8.28,20a6.18,6.18,0,0,1,1.62-.82.31.31,0,0,0,.22-.16,3,3,0,0,1,1.36-1.42c.31-.18.31-.2.07-.47s-.69-.65-1-1a8.53,8.53,0,0,1-2.39-4.57,9.19,9.19,0,0,1-.22-2,8.67,8.67,0,0,1,.73-3.33A11.72,11.72,0,0,1,10.4,3.35,8.81,8.81,0,0,1,13.54,1,11.23,11.23,0,0,1,16.19.17a3,3,0,0,1,.9-.11L18,1c.16.17.31.33.45.51.48.62,1,1.23,1.42,1.88a14.08,14.08,0,0,1,1.81,3.43,30.44,30.44,0,0,1,.84,3,8.91,8.91,0,0,1,.37,2,11,11,0,0,1-.1,2.36,9.94,9.94,0,0,1-1.36,3.57.32.32,0,0,0,0,.43,7.83,7.83,0,0,1,.81,1.44,6.59,6.59,0,0,1,.48,3.4,6.94,6.94,0,0,1-.67,2.23,5.82,5.82,0,0,1-1.21,1.62.44.44,0,0,0-.15.35c0,.37,0,.73,0,1.09A2.7,2.7,0,0,0,21,29.3a6.28,6.28,0,0,1,.36,3.32c-.17,1.12-.51,2.2-.62,3.32a2.84,2.84,0,0,0-.06.87c.17.81.36,1.62.54,2.43A9.19,9.19,0,0,1,21.52,41a6.18,6.18,0,0,1-.25,1.86,13.55,13.55,0,0,1-1.36,3.35.4.4,0,0,0,0,.32,2.62,2.62,0,0,1-.19,1.7,18,18,0,0,1-1.16,2.16,1.62,1.62,0,0,0-.37,1.14,4.22,4.22,0,0,1,0,1.66,4.89,4.89,0,0,1-1.32,2.52C16.38,56.07,15.94,56.44,15.51,56.83Z"/><path class="cls-2" d="M15.22,56.83c.43-.39.87-.76,1.28-1.17a5,5,0,0,0,1.31-2.52,4.22,4.22,0,0,0,.05-1.66,1.67,1.67,0,0,1,.37-1.14,18,18,0,0,0,1.16-2.16,2.62,2.62,0,0,0,.19-1.7.4.4,0,0,1,0-.32A13.55,13.55,0,0,0,21,42.81,5.88,5.88,0,0,0,21.23,41a10.07,10.07,0,0,0-.31-1.71c-.19-.81-.38-1.62-.55-2.43a2.84,2.84,0,0,1,.06-.87c.11-1.12.45-2.2.62-3.32a6.28,6.28,0,0,0-.36-3.32,2.7,2.7,0,0,1-.21-1.05c0-.36,0-.72,0-1.09a.46.46,0,0,1,.14-.35,5.82,5.82,0,0,0,1.21-1.62A6.69,6.69,0,0,0,22.47,23a6.49,6.49,0,0,0-.48-3.4,6.82,6.82,0,0,0-.81-1.44.33.33,0,0,1,0-.43,9.94,9.94,0,0,0,1.36-3.57,11,11,0,0,0,.1-2.36,8.91,8.91,0,0,0-.37-2c-.25-1-.49-2-.83-3A14.81,14.81,0,0,0,19.62,3.4c-.46-.65-.95-1.26-1.43-1.88-.14-.18-.29-.34-.45-.51L16.8.06a1.5,1.5,0,0,1,.63,0A10.6,10.6,0,0,1,23.5,1.69a8.43,8.43,0,0,1,2.69,2.69,10.06,10.06,0,0,1,1.57,3.67,8.16,8.16,0,0,1,.07,2.7,9.67,9.67,0,0,1-1.5,4.15,10,10,0,0,1-1.81,1.93c-.53.49-.53.51.06.89A2.68,2.68,0,0,1,25.68,19a.39.39,0,0,0,.24.21,5.41,5.41,0,0,1,1.83,1,1.73,1.73,0,0,1,.6,1.39c0,.24,0,.47,0,.7a2.05,2.05,0,0,1-1,1.45,8.46,8.46,0,0,1-2.78,1.14l-1,.22c-.12,0-.15.08-.13.19.06.42,0,.85,0,1.28,0,.71,0,1.42.08,2.13.07,1.15.09,2.3.16,3.46a13.69,13.69,0,0,0,.46,3A12.79,12.79,0,0,0,26,39.13a11.8,11.8,0,0,0,1.27,1.38,4.35,4.35,0,0,1,1.2,1.92,3,3,0,0,1-.1,1.74c-.14.4-.14.4.21.65.93.67,1.89,1.31,2.76,2.06A7.89,7.89,0,0,1,33.9,50.5a4.7,4.7,0,0,1,.16,1.58.51.51,0,0,0,.13.35,6.45,6.45,0,0,1,1.57,3.11,5.84,5.84,0,0,1,.06,1.18c0,.08,0,.12-.11.12a.41.41,0,0,0-.11,0H15.22Z"/><path class="cls-3" d="M50,31.27a6,6,0,0,1-2,4.33,7.15,7.15,0,0,1-4.84,1.59A6.43,6.43,0,0,1,38,35a9.11,9.11,0,0,1-1.88-6.07v-1A10.22,10.22,0,0,1,37,23.53a6.36,6.36,0,0,1,2.48-2.87,6.91,6.91,0,0,1,3.74-1A7,7,0,0,1,48,21.24,6.44,6.44,0,0,1,50,25.68H46.53a3.59,3.59,0,0,0-.92-2.4,3.44,3.44,0,0,0-2.41-.74,3,3,0,0,0-2.63,1.26,7.11,7.11,0,0,0-.9,3.91V29A7.55,7.55,0,0,0,40.51,33a2.93,2.93,0,0,0,2.64,1.27,3.43,3.43,0,0,0,2.43-.74,3.3,3.3,0,0,0,.92-2.3Z"/><path class="cls-3" d="M66.22,37H62.7V29.64H55.84V37H52.33V19.89h3.51V26.8H62.7V19.89h3.52Z"/><path class="cls-3" d="M79.55,29.56H72.8v4.57h7.92V37H69.29V19.89H80.7v2.85H72.8V26.8h6.75Z"/><path class="cls-3" d="M91.63,32.48a1.79,1.79,0,0,0-.7-1.53,9.21,9.21,0,0,0-2.53-1.13,17.24,17.24,0,0,1-2.9-1.17q-2.9-1.56-2.9-4.23A4.1,4.1,0,0,1,83.38,22a5,5,0,0,1,2.24-1.7,8.51,8.51,0,0,1,3.27-.61,7.69,7.69,0,0,1,3.26.67,5.17,5.17,0,0,1,2.22,1.87,4.84,4.84,0,0,1,.79,2.74H91.64a2.29,2.29,0,0,0-.73-1.82,3,3,0,0,0-2.08-.65,3.24,3.24,0,0,0-2,.54,1.71,1.71,0,0,0-.72,1.44A1.64,1.64,0,0,0,87,25.83a9.33,9.33,0,0,0,2.47,1.06,10.62,10.62,0,0,1,4.37,2.23,4.47,4.47,0,0,1,1.37,3.33,4.11,4.11,0,0,1-1.68,3.48A7.32,7.32,0,0,1,89,37.19a8.71,8.71,0,0,1-3.58-.72,5.74,5.74,0,0,1-2.47-2,5,5,0,0,1-.85-2.91H85.6q0,2.84,3.37,2.83a3.29,3.29,0,0,0,2-.51A1.66,1.66,0,0,0,91.63,32.48Z"/><path class="cls-3" d="M106.39,32.48a1.79,1.79,0,0,0-.71-1.53,9.07,9.07,0,0,0-2.53-1.13,16.75,16.75,0,0,1-2.89-1.17q-2.91-1.56-2.91-4.23A4.1,4.1,0,0,1,98.13,22a5.09,5.09,0,0,1,2.24-1.7,8.51,8.51,0,0,1,3.27-.61,7.69,7.69,0,0,1,3.26.67,5.06,5.06,0,0,1,2.22,1.87,4.84,4.84,0,0,1,.79,2.74H106.4a2.3,2.3,0,0,0-.74-1.82,3,3,0,0,0-2.07-.65,3.29,3.29,0,0,0-2,.54,1.73,1.73,0,0,0-.71,1.44,1.64,1.64,0,0,0,.84,1.39,9.25,9.25,0,0,0,2.46,1.06,10.62,10.62,0,0,1,4.37,2.23,4.43,4.43,0,0,1,1.37,3.33,4.1,4.1,0,0,1-1.67,3.48,7.34,7.34,0,0,1-4.51,1.26,8.72,8.72,0,0,1-3.59-.72,5.74,5.74,0,0,1-2.47-2,5.11,5.11,0,0,1-.85-2.91h3.53q0,2.84,3.38,2.83a3.25,3.25,0,0,0,2-.51A1.67,1.67,0,0,0,106.39,32.48Z"/><path class="cls-4" d="M131,31.63A6.16,6.16,0,0,1,129,35.76a6.39,6.39,0,0,1-4.35,1.43,6,6,0,0,1-3.36-.95,6.32,6.32,0,0,1-2.26-2.69,9.49,9.49,0,0,1-.8-4V27.35a9.69,9.69,0,0,1,.79-4,6.18,6.18,0,0,1,2.29-2.71,6.25,6.25,0,0,1,3.44-1,6.11,6.11,0,0,1,4.33,1.48A6.19,6.19,0,0,1,131,25.22H129.5q-.54-4.35-4.73-4.35a4.46,4.46,0,0,0-3.69,1.74,7.51,7.51,0,0,0-1.38,4.8v2.08A7.64,7.64,0,0,0,121,34.21,4.33,4.33,0,0,0,124.67,36a4.77,4.77,0,0,0,3.41-1.09,5.2,5.2,0,0,0,1.42-3.25Z"/><path class="cls-4" d="M147.1,37h-1.46V28.77h-9.75V37h-1.44V19.89h1.44v7.66h9.75V19.89h1.46Z"/><path class="cls-4" d="M160.86,32.16h-7.75L151.35,37h-1.51l6.46-17.06h1.37L164.13,37h-1.5Zm-7.31-1.22h6.85L157,21.65Z"/><path class="cls-4" d="M168.54,19.89,174.84,35l6.31-15.06h1.92V37h-1.44V29.52l.12-7.62L175.4,37h-1.11L168,22l.11,7.52V37h-1.44V19.89Z"/><path class="cls-4" d="M188.84,30v7H187.4V19.89h5.81a6.1,6.1,0,0,1,4.2,1.36A4.71,4.71,0,0,1,199,25a4.69,4.69,0,0,1-1.48,3.71,6.31,6.31,0,0,1-4.29,1.3Zm0-1.22h4.37a4.63,4.63,0,0,0,3.2-1,3.6,3.6,0,0,0,1.1-2.79,3.72,3.72,0,0,0-1.09-2.82,4.38,4.38,0,0,0-3.12-1.07h-4.46Z"/><path class="cls-4" d="M203.93,37h-1.44V19.89h1.44Z"/><path class="cls-4" d="M221.17,29.35a9.85,9.85,0,0,1-.81,4.13,6.12,6.12,0,0,1-5.82,3.71,6.09,6.09,0,0,1-4.83-2.14,8.54,8.54,0,0,1-1.84-5.77V27.52a9.79,9.79,0,0,1,.83-4.13,6.37,6.37,0,0,1,11.62-.1,9.67,9.67,0,0,1,.85,4Zm-1.44-1.86a7.52,7.52,0,0,0-1.39-4.82,5,5,0,0,0-7.62,0,7.61,7.61,0,0,0-1.41,4.89v1.79a7.54,7.54,0,0,0,1.41,4.81,4.62,4.62,0,0,0,3.82,1.77,4.57,4.57,0,0,0,3.82-1.75,7.76,7.76,0,0,0,1.37-4.88Z"/><path class="cls-4" d="M237.51,37h-1.44l-9.81-14.6V37H224.8V19.89h1.46l9.82,14.61V19.89h1.43Z"/><path class="cls-4" d="M251.5,32.76a2.75,2.75,0,0,0-1-2.25,10.5,10.5,0,0,0-3.64-1.57A12.72,12.72,0,0,1,243,27.32a3.94,3.94,0,0,1-.12-6.44A6.59,6.59,0,0,1,247,19.65a6.79,6.79,0,0,1,3,.66,5,5,0,0,1,2.08,1.83,4.81,4.81,0,0,1,.74,2.61h-1.46a3.57,3.57,0,0,0-1.19-2.81A4.66,4.66,0,0,0,247,20.87a5.07,5.07,0,0,0-3.12.88A2.73,2.73,0,0,0,242.71,24a2.61,2.61,0,0,0,1,2.13,9.72,9.72,0,0,0,3.34,1.44,15.33,15.33,0,0,1,3.48,1.31,5,5,0,0,1,1.79,1.61,4.07,4.07,0,0,1,.59,2.21A3.85,3.85,0,0,1,251.34,36a6.87,6.87,0,0,1-4.25,1.22,8.35,8.35,0,0,1-3.31-.65,5.08,5.08,0,0,1-2.28-1.8,4.67,4.67,0,0,1-.78-2.66h1.44a3.39,3.39,0,0,0,1.35,2.84,5.67,5.67,0,0,0,3.58,1,5.35,5.35,0,0,0,3.2-.88A2.74,2.74,0,0,0,251.5,32.76Z"/><path class="cls-4" d="M268.7,37h-1.45V28.77H257.5V37h-1.44V19.89h1.44v7.66h9.75V19.89h1.45Z"/><path class="cls-4" d="M274.8,37h-1.44V19.89h1.44Z"/><path class="cls-4" d="M280.87,30v7h-1.44V19.89h5.81a6.12,6.12,0,0,1,4.2,1.36A4.71,4.71,0,0,1,291,25a4.69,4.69,0,0,1-1.48,3.71,6.32,6.32,0,0,1-4.3,1.3Zm0-1.22h4.37a4.64,4.64,0,0,0,3.2-1,3.6,3.6,0,0,0,1.1-2.79,3.73,3.73,0,0,0-1.1-2.82,4.35,4.35,0,0,0-3.11-1.07h-4.46Z"/><path class="cls-3" d="M100.85,39.62v5.61a2.89,2.89,0,0,1-.88,2.22,3.38,3.38,0,0,1-2.39.81,3.42,3.42,0,0,1-2.38-.79,2.82,2.82,0,0,1-.89-2.17V39.62h1.76v5.63a1.62,1.62,0,0,0,.4,1.22,1.54,1.54,0,0,0,1.11.38q1.48,0,1.5-1.56V39.62Z"/><path class="cls-3" d="M105.23,43.46,107,39.62h1.92l-2.8,5.43v3.1h-1.79v-3.1l-2.8-5.43h1.93Z"/></g></g></svg>